<?xml version="1.0" standalone="no"?>
<!DOCTYPE svg PUBLIC "-//W3C//DTD SVG 20010904//EN"
 "http://www.w3.org/TR/2001/REC-SVG-20010904/DTD/svg10.dtd">
<svg version="1.0" xmlns="http://www.w3.org/2000/svg"
 width="205.000000pt" height="95.000000pt" viewBox="0 0 205.000000 95.000000"
 preserveAspectRatio="xMidYMid meet">

<g transform="translate(0.000000,95.000000) scale(0.100000,-0.100000)"
fill="#000000" stroke="none">
<path d="M160 912 c0 -4 12 -15 26 -26 25 -18 25 -18 12 3 -13 21 -38 36 -38
23z"/>
<path d="M617 901 c23 -4 49 -13 57 -20 15 -12 15 -16 1 -31 -8 -9 -15 -21
-15 -27 0 -5 -7 -10 -15 -10 -8 0 -12 4 -9 9 8 13 -16 38 -37 38 -24 0 -32
-16 -25 -45 4 -17 11 -23 24 -19 12 4 10 0 -7 -15 -13 -12 -27 -21 -31 -21 -4
0 -10 23 -14 51 -6 42 -4 55 11 73 l18 21 -23 -20 c-19 -16 -23 -27 -20 -65 3
-44 3 -45 -27 -44 -17 1 -63 22 -105 48 -41 25 -81 46 -90 46 -8 -1 0 -7 17
-15 18 -8 54 -29 80 -47 27 -18 68 -38 93 -44 39 -11 25 -12 -98 -7 -110 5
-146 3 -152 -6 -4 -7 -41 -16 -81 -21 -55 -5 -63 -8 -30 -9 24 0 85 7 134 16
86 17 90 17 102 -1 9 -11 19 -15 27 -10 10 6 10 4 -1 -9 -12 -15 -11 -17 4
-17 13 0 11 -6 -12 -30 -15 -16 -32 -30 -38 -30 -5 -1 -25 -14 -44 -30 -19
-16 -38 -27 -42 -24 -4 2 -22 -17 -40 -43 -26 -37 -33 -59 -35 -102 l-3 -56 7
51 c8 55 30 96 66 119 28 19 69 28 61 14 -4 -5 -11 -7 -16 -3 -5 3 -28 -12
-49 -34 -45 -44 -52 -89 -25 -142 15 -29 51 -60 70 -60 5 0 -3 9 -19 19 -59
39 -74 109 -32 158 20 23 31 27 67 26 24 -1 85 -2 134 -4 76 -2 96 1 131 19
66 34 78 61 82 185 4 101 6 109 29 127 22 17 23 20 7 20 -11 0 -28 7 -38 15
-11 8 -36 14 -55 14 l-36 -2 42 -6z m3 -76 c0 -17 -2 -18 -24 -9 -23 9 -20 24
4 24 11 0 20 -7 20 -15z m18 -45 c-7 -11 -16 -20 -20 -20 -5 0 -3 9 4 20 7 11
16 20 20 20 5 0 3 -9 -4 -20z"/>
<path d="M141 864 c6 -8 17 -14 24 -14 7 0 24 -11 39 -25 20 -19 37 -25 69
-24 l42 1 -35 9 c-56 16 -90 31 -85 39 2 4 -12 12 -31 18 -30 9 -33 8 -23 -4z"/>
<path d="M268 873 c7 -3 16 -2 19 1 4 3 -2 6 -13 5 -11 0 -14 -3 -6 -6z"/>
<path d="M215 862 c-3 -3 24 -14 61 -24 37 -10 68 -17 70 -15 2 2 -25 12 -61
24 -35 11 -67 18 -70 15z"/>
<path d="M146 818 c3 -5 18 -14 32 -20 l27 -11 -25 -7 c-24 -6 -24 -6 7 -13
35 -7 63 -1 63 14 0 5 -11 9 -24 9 -13 0 -29 6 -35 14 -13 16 -54 29 -45 14z"/>
<path d="M765 775 c-32 -31 -34 -96 -5 -125 27 -27 55 -27 40 -1 -18 34 -12
109 10 131 l20 20 -20 0 c-12 0 -32 -11 -45 -25z"/>
<path d="M1548 715 l-3 -85 26 0 26 0 -1 85 c-1 80 -2 85 -23 85 -20 0 -22 -5
-25 -85z"/>
<path d="M1628 751 c-7 -73 1 -111 26 -121 11 -4 24 -6 28 -4 11 7 -11 67 -28
77 -14 8 -13 11 5 24 26 18 27 49 2 63 -28 15 -28 15 -33 -39z"/>
<path d="M1728 715 c3 -80 5 -85 25 -85 21 0 22 4 21 83 0 79 -1 82 -25 85
l-24 3 3 -86z"/>
<path d="M1821 783 c7 -10 15 -20 16 -22 2 -2 3 5 3 17 0 14 -6 22 -16 22 -14
0 -15 -3 -3 -17z"/>
<path d="M1882 725 c4 -81 8 -89 53 -99 24 -5 26 -4 13 4 -15 9 -18 25 -18 90
0 80 0 80 -26 80 l-26 0 4 -75z"/>
<path d="M876 775 c4 -8 8 -15 10 -15 2 0 4 7 4 15 0 8 -4 15 -10 15 -5 0 -7
-7 -4 -15z"/>
<path d="M987 740 c-5 -21 0 -30 20 -30 17 0 17 36 -1 43 -8 3 -16 -2 -19 -13z"/>
<path d="M928 690 c-3 -57 -2 -60 20 -60 20 0 22 4 22 60 0 52 -2 60 -19 60
-16 0 -20 -9 -23 -60z"/>
<path d="M1048 690 c4 -57 5 -60 29 -60 19 0 23 3 16 13 -6 6 -8 33 -6 60 3
43 1 47 -20 47 -21 0 -22 -3 -19 -60z"/>
<path d="M1120 690 c0 -53 2 -60 20 -60 18 0 20 7 20 60 0 53 -2 60 -20 60
-18 0 -20 -7 -20 -60z"/>
<path d="M1195 665 c0 -81 1 -85 23 -85 21 0 22 4 22 85 0 81 -1 85 -22 85
-22 0 -23 -4 -23 -85z"/>
<path d="M1273 721 c9 -24 9 -39 -1 -63 -14 -37 -13 -38 15 -27 44 16 41 111
-4 117 -20 3 -21 1 -10 -27z"/>
<path d="M1352 738 c-26 -26 -9 -108 23 -108 6 0 10 25 10 60 0 60 -9 72 -33
48z"/>
<path d="M1415 690 c-1 -49 2 -60 14 -58 37 7 38 109 1 116 -12 2 -15 -10 -15
-58z"/>
<path d="M54 725 c11 -8 22 -12 25 -9 6 6 -19 24 -34 24 -5 -1 -1 -7 9 -15z"/>
<path d="M1801 727 c-6 -8 -8 -17 -4 -20 11 -12 19 -7 20 13 2 24 -1 25 -16 7z"/>
<path d="M108 703 c7 -3 16 -2 19 1 4 3 -2 6 -13 5 -11 0 -14 -3 -6 -6z"/>
<path d="M214 695 c-3 -8 -15 -17 -26 -21 -11 -3 -17 -8 -15 -11 6 -5 87 34
87 42 0 12 -41 3 -46 -10z"/>
<path d="M163 693 c9 -2 23 -2 30 0 6 3 -1 5 -18 5 -16 0 -22 -2 -12 -5z"/>
<path d="M848 667 c3 -30 7 -33 28 -29 19 3 24 11 24 33 0 25 -4 29 -28 29
-26 0 -28 -3 -24 -33z"/>
<path d="M249 667 c-20 -9 -24 -15 -15 -23 9 -8 18 -7 34 6 37 30 28 38 -19
17z"/>
<path d="M320 665 c-8 -9 -30 -25 -49 -36 -23 -12 -27 -17 -12 -13 18 5 22 3
16 -7 -4 -8 10 3 31 23 21 21 35 40 32 43 -3 3 -11 -2 -18 -10z"/>
<path d="M1840 671 c0 -5 -7 -17 -16 -25 -14 -15 -14 -16 5 -16 16 0 21 6 21
25 0 14 -2 25 -5 25 -3 0 -5 -4 -5 -9z"/>
<path d="M95 650 c3 -5 17 -10 30 -10 13 0 27 5 30 10 4 6 -8 10 -30 10 -22 0
-34 -4 -30 -10z"/>
<path d="M178 643 c6 -2 18 -2 25 0 6 3 1 5 -13 5 -14 0 -19 -2 -12 -5z"/>
<path d="M190 609 l-35 -20 30 6 c30 6 52 21 44 29 -2 2 -20 -5 -39 -15z"/>
<path d="M1190 510 c0 -5 7 -10 15 -10 8 0 15 5 15 10 0 6 -7 10 -15 10 -8 0
-15 -4 -15 -10z"/>
<path d="M740 449 c0 -51 3 -60 17 -57 9 2 16 6 15 11 -1 4 -2 30 -2 57 0 38
-4 50 -15 50 -12 0 -15 -13 -15 -61z"/>
<path d="M1100 452 c0 -46 3 -59 15 -59 12 0 15 13 15 59 0 45 -3 58 -15 58
-12 0 -15 -13 -15 -58z"/>
<path d="M1165 500 c3 -5 8 -10 11 -10 2 0 4 5 4 10 0 6 -5 10 -11 10 -5 0 -7
-4 -4 -10z"/>
<path d="M1570 449 c0 -81 24 -77 28 4 2 46 0 57 -13 57 -12 0 -15 -13 -15
-61z"/>
<path d="M1720 452 c0 -46 3 -59 15 -59 12 0 15 13 15 59 0 45 -3 58 -15 58
-12 0 -15 -13 -15 -58z"/>
<path d="M1874 485 c-17 -26 -13 -55 12 -80 20 -20 40 -20 24 0 -8 10 -11 32
-8 60 6 50 -4 57 -28 20z"/>
<path d="M882 440 c2 -25 8 -45 13 -45 17 0 17 49 0 70 -14 19 -15 17 -13 -25z"/>
<path d="M937 434 c18 -52 35 -47 26 9 -4 27 -11 37 -24 37 -17 0 -17 -3 -2
-46z"/>
<path d="M980 466 c0 -7 6 -28 14 -46 18 -43 31 -21 16 25 -11 35 -30 48 -30
21z"/>
<path d="M1198 435 c2 -25 8 -45 13 -45 5 0 9 20 9 45 0 29 -4 45 -13 45 -8 0
-11 -14 -9 -45z"/>
<path d="M1248 435 c5 -58 26 -55 30 3 3 35 0 42 -15 42 -15 0 -18 -7 -15 -45z"/>
<path d="M1290 465 c0 -8 5 -15 10 -15 6 0 10 7 10 15 0 8 -4 15 -10 15 -5 0
-10 -7 -10 -15z"/>
<path d="M1330 435 c0 -31 4 -45 12 -43 6 2 11 22 11 43 0 21 -5 41 -11 43 -8
2 -12 -12 -12 -43z"/>
<path d="M1378 435 c2 -25 8 -45 13 -45 5 0 9 20 9 45 0 29 -4 45 -13 45 -8 0
-11 -14 -9 -45z"/>
<path d="M1428 435 c2 -25 8 -45 13 -45 5 0 9 20 9 45 0 29 -4 45 -13 45 -8 0
-11 -14 -9 -45z"/>
<path d="M312 454 c-31 -22 -27 -68 6 -72 21 -3 22 -1 13 17 -9 16 -8 22 6 30
21 11 48 -1 63 -28 7 -14 5 -25 -11 -45 -11 -14 -16 -26 -10 -26 6 0 17 12 25
27 12 24 12 32 0 54 -17 34 -52 44 -76 22 -11 -9 -16 -23 -13 -30 2 -8 0 -11
-5 -8 -33 20 19 69 65 61 61 -11 83 -67 49 -124 l-16 -27 21 24 c47 53 11 141
-58 141 -20 0 -47 -7 -59 -16z"/>
<path d="M840 460 c0 -5 5 -10 10 -10 6 0 10 5 10 10 0 6 -4 10 -10 10 -5 0
-10 -4 -10 -10z"/>
<path d="M840 415 c0 -8 7 -15 15 -15 9 0 12 6 9 15 -4 8 -10 15 -15 15 -5 0
-9 -7 -9 -15z"/>
<path d="M532 386 c-7 -19 -30 -50 -52 -70 -23 -20 -34 -37 -27 -40 8 -3 8 -5
-1 -5 -7 -1 -10 -5 -7 -11 7 -12 26 -14 23 -2 -1 4 15 24 35 45 21 22 39 52
43 73 9 47 1 52 -14 10z m-42 -80 c0 -2 -8 -10 -17 -17 -16 -13 -17 -12 -4 4
13 16 21 21 21 13z"/>
<path d="M806 405 c-3 -8 -1 -15 4 -15 6 0 10 7 10 15 0 8 -2 15 -4 15 -2 0
-6 -7 -10 -15z"/>
<path d="M1480 405 c0 -9 5 -15 11 -13 6 2 11 8 11 13 0 5 -5 11 -11 13 -6 2
-11 -4 -11 -13z"/>
<path d="M1636 411 c-4 -7 -5 -15 -2 -18 9 -9 19 4 14 18 -4 11 -6 11 -12 0z"/>
<path d="M1670 404 c0 -8 5 -12 10 -9 6 3 10 10 10 16 0 5 -4 9 -10 9 -5 0
-10 -7 -10 -16z"/>
<path d="M1786 411 c-4 -7 -5 -15 -2 -18 9 -9 19 4 14 18 -4 11 -6 11 -12 0z"/>
<path d="M1820 411 c0 -6 5 -13 10 -16 6 -3 10 1 10 9 0 9 -4 16 -10 16 -5 0
-10 -4 -10 -9z"/>
<path d="M1982 409 c2 -6 8 -10 13 -10 5 0 11 4 13 10 2 6 -4 11 -13 11 -9 0
-15 -5 -13 -11z"/>
<path d="M200 374 c0 -6 7 -19 16 -30 14 -18 14 -18 3 6 -14 31 -19 36 -19 24z"/>
<path d="M338 323 c7 -3 16 -2 19 1 4 3 -2 6 -13 5 -11 0 -14 -3 -6 -6z"/>
<path d="M640 314 c-30 -8 -66 -22 -80 -31 -13 -9 -38 -20 -55 -24 -24 -6 -25
-7 -7 -8 12 -1 44 10 70 23 161 81 319 43 353 -87 9 -31 9 -31 4 6 -12 110
-134 162 -285 121z"/>
<path d="M240 305 c14 -17 80 -59 84 -54 2 2 -19 19 -47 37 -27 18 -44 26 -37
17z"/>
<path d="M360 295 c-14 -8 -19 -14 -10 -14 8 0 24 6 34 14 25 19 9 19 -24 0z"/>
<path d="M683 298 c-24 -4 -64 -17 -90 -29 l-48 -21 32 -9 c36 -10 43 -19 54
-63 l7 -31 1 28 c1 20 -8 38 -29 57 l-29 27 51 17 c123 40 228 2 259 -93 7
-20 14 -30 16 -24 3 7 -7 34 -22 61 -37 69 -108 97 -202 80z"/>
<path d="M388 233 c7 -3 16 -2 19 1 4 3 -2 6 -13 5 -11 0 -14 -3 -6 -6z"/>
<path d="M560 219 c14 -5 31 -17 38 -26 6 -9 12 -12 12 -5 0 14 -40 42 -60 41
-8 0 -4 -5 10 -10z"/>
<path d="M706 179 c-15 -17 -26 -42 -25 -57 1 -25 2 -24 9 6 18 78 88 98 134
40 14 -18 26 -27 26 -20 0 7 -11 24 -25 37 -36 37 -86 34 -119 -6z"/>
<path d="M732 174 c-28 -19 -29 -63 -1 -98 11 -14 24 -26 29 -26 5 0 -2 11
-16 25 -35 35 -31 86 9 99 38 14 56 -4 37 -39 -11 -20 -11 -28 -2 -37 14 -14
43 -1 49 23 3 8 0 7 -7 -3 -12 -19 -40 -25 -40 -8 0 6 5 19 12 29 9 15 9 23
-1 35 -17 20 -40 20 -69 0z"/>
<path d="M596 144 c-5 -12 -13 -14 -34 -10 -25 6 -26 5 -9 -8 11 -8 25 -12 32
-10 14 6 29 34 21 41 -2 2 -6 -4 -10 -13z"/>
<path d="M890 126 c0 -7 -9 -26 -21 -42 l-21 -29 26 28 c23 25 35 57 21 57 -3
0 -5 -6 -5 -14z"/>
<path d="M920 119 c0 -12 -15 -36 -34 -55 -19 -19 -30 -34 -26 -34 15 0 70 71
70 90 0 11 -2 20 -5 20 -3 0 -5 -9 -5 -21z"/>
<path d="M690 83 c0 -5 10 -18 23 -29 l22 -19 -20 25 c-11 14 -21 27 -22 29
-2 2 -3 0 -3 -6z"/>
<path d="M788 43 c7 -3 16 -2 19 1 4 3 -2 6 -13 5 -11 0 -14 -3 -6 -6z"/>
<path d="M778 23 c12 -2 32 -2 45 0 12 2 2 4 -23 4 -25 0 -35 -2 -22 -4z"/>
</g>
</svg>
